<svg width="34" height="34" viewBox="0 0 34 34" fill="none" xmlns="http://www.w3.org/2000/svg">
<path fill-rule="evenodd" clip-rule="evenodd" d="M16.7677 0C7.50688 0 0 7.50688 0 16.7677C0 19.9368 0.880302 22.9046 2.41119 25.4332L0.915515 30.5172C0.829638 30.809 0.823988 31.1187 0.899157 31.4135C0.974326 31.7084 1.12754 31.9775 1.34269 32.1926C1.55784 32.4078 1.82697 32.561 2.12181 32.6362C2.41664 32.7113 2.72628 32.7057 3.01818 32.6198L8.10214 31.1241C10.7158 32.7052 13.713 33.5392 16.7677 33.5353C26.0284 33.5353 33.5353 26.0284 33.5353 16.7677C33.5353 7.50688 26.0284 0 16.7677 0ZM12.9748 20.5622C16.3669 23.9526 19.6048 24.4003 20.7483 24.4422C22.4871 24.5059 24.1807 23.1779 24.8396 21.637C24.9221 21.4452 24.9519 21.2348 24.926 21.0276C24.9 20.8204 24.8193 20.6238 24.6921 20.4582C23.7732 19.2845 22.5307 18.4411 21.3167 17.6027C21.0634 17.427 20.7518 17.3565 20.4475 17.4059C20.1432 17.4553 19.87 17.6208 19.6852 17.8676L18.6792 19.4019C18.626 19.484 18.5436 19.5429 18.4486 19.5666C18.3537 19.5902 18.2533 19.5769 18.1678 19.5293C17.4853 19.1386 16.491 18.4746 15.7767 17.7603C15.0624 17.046 14.4386 16.097 14.0882 15.4581C14.0458 15.3767 14.0338 15.2829 14.0544 15.1934C14.075 15.104 14.1268 15.0248 14.2005 14.9702L15.7499 13.8199C15.9716 13.6281 16.1148 13.3612 16.1519 13.0703C16.189 12.7795 16.1175 12.4851 15.9511 12.2437C15.1999 11.1438 14.3246 9.74537 13.0553 8.81812C12.8911 8.70017 12.6993 8.62662 12.4984 8.60458C12.2974 8.58255 12.0942 8.61279 11.9084 8.69236C10.3658 9.353 9.03106 11.0465 9.09478 12.7887C9.1367 13.9323 9.5844 17.1701 12.9748 20.5622Z" fill="white"/>
</svg>
